<svg width="52" height="52" viewBox="0 0 52 52" fill="none" xmlns="http://www.w3.org/2000/svg">
<g clip-path="url(#clip0_418_1599)">
<path d="M33.3125 33.3125H23.5625V47.9375H33.3125V33.3125Z" fill="#A0D468"/>
<path d="M51.1875 19.5H0.8125L4.875 8.9375H47.125L51.1875 19.5Z" fill="#FFB600"/>
<path d="M51.1875 52H0.8125C0.363797 52 0 51.6362 0 51.1875V47.9375C0 47.4888 0.363797 47.125 0.8125 47.125H51.1875C51.6362 47.125 52 47.4888 52 47.9375V51.1875C52 51.6362 51.6362 52 51.1875 52ZM1.625 50.375H50.375V48.75H1.625V50.375Z" fill="#153B69"/>
<path d="M48.75 48.75H3.25C2.8013 48.75 2.4375 48.3862 2.4375 47.9375V17.0625C2.4375 16.6138 2.8013 16.25 3.25 16.25H48.75C49.1987 16.25 49.5625 16.6138 49.5625 17.0625V47.9375C49.5625 48.3862 49.1987 48.75 48.75 48.75ZM4.0625 47.125H47.9375V17.875H4.0625V47.125Z" fill="#153B69"/>
<path d="M51.2038 17.875C51.1983 17.8746 51.1927 17.875 51.1876 17.875H0.812581C0.544789 17.875 0.29445 17.7433 0.142902 17.5223C-0.00864523 17.3017 -0.041974 17.0208 0.054031 16.7709L4.11653 6.20841C4.23754 5.89459 4.53906 5.6875 4.87508 5.6875H47.1251C47.4611 5.6875 47.7626 5.89459 47.8836 6.2084L51.8918 16.6301C51.9707 16.755 52.0163 16.9034 52.0163 17.0625C52.0163 17.5112 51.6525 17.875 51.2038 17.875ZM1.99562 16.25H50.0045L46.5669 7.3125H5.43328L1.99562 16.25Z" fill="#153B69"/>
<path d="M14.625 7.3125H8.125C7.6763 7.3125 7.3125 6.9487 7.3125 6.5V0.8125C7.3125 0.363797 7.6763 0 8.125 0H14.625C15.0737 0 15.4375 0.363797 15.4375 0.8125V6.5C15.4375 6.9487 15.0737 7.3125 14.625 7.3125ZM8.9375 5.6875H13.8125V1.625H8.9375V5.6875Z" fill="#153B69"/>
<path d="M30.875 48.75H21.125C20.6763 48.75 20.3125 48.3862 20.3125 47.9375V33.3125C20.3125 32.8638 20.6763 32.5 21.125 32.5H30.875C31.3237 32.5 31.6875 32.8638 31.6875 33.3125V47.9375C31.6875 48.3862 31.3237 48.75 30.875 48.75ZM21.9375 47.125H30.0625V34.125H21.9375V47.125Z" fill="#153B69"/>
<path d="M17.0625 35.75H7.3125C6.8638 35.75 6.5 35.3862 6.5 34.9375V25.1875C6.5 24.7388 6.8638 24.375 7.3125 24.375H17.0625C17.5112 24.375 17.875 24.7388 17.875 25.1875V34.9375C17.875 35.3862 17.5112 35.75 17.0625 35.75ZM8.125 34.125H16.25V26H8.125V34.125Z" fill="#153B69"/>
<path d="M44.6875 35.75H34.9375C34.4888 35.75 34.125 35.3862 34.125 34.9375V25.1875C34.125 24.7388 34.4888 24.375 34.9375 24.375H44.6875C45.1362 24.375 45.5 24.7388 45.5 25.1875V34.9375C45.5 35.3862 45.1362 35.75 44.6875 35.75ZM35.75 34.125H43.875V26H35.75V34.125Z" fill="#153B69"/>
<path d="M12.1875 35.75C11.7388 35.75 11.375 35.3862 11.375 34.9375V25.1875C11.375 24.7388 11.7388 24.375 12.1875 24.375C12.6362 24.375 13 24.7388 13 25.1875V34.9375C13 35.3862 12.6362 35.75 12.1875 35.75Z" fill="#153B69"/>
<path d="M17.0625 30.875H7.3125C6.8638 30.875 6.5 30.5112 6.5 30.0625C6.5 29.6138 6.8638 29.25 7.3125 29.25H17.0625C17.5112 29.25 17.875 29.6138 17.875 30.0625C17.875 30.5112 17.5112 30.875 17.0625 30.875Z" fill="#153B69"/>
<path d="M39.8125 35.75C39.3638 35.75 39 35.3862 39 34.9375V25.1875C39 24.7388 39.3638 24.375 39.8125 24.375C40.2612 24.375 40.625 24.7388 40.625 25.1875V34.9375C40.625 35.3862 40.2612 35.75 39.8125 35.75Z" fill="#153B69"/>
<path d="M44.6875 30.875H34.9375C34.4888 30.875 34.125 30.5112 34.125 30.0625C34.125 29.6138 34.4888 29.25 34.9375 29.25H44.6875C45.1362 29.25 45.5 29.6138 45.5 30.0625C45.5 30.5112 45.1362 30.875 44.6875 30.875Z" fill="#153B69"/>
<path d="M27.625 41.4375C27.4135 41.4375 27.2025 41.3479 27.0482 41.2019C26.9018 41.0475 26.8125 40.8361 26.8125 40.625C26.8125 40.4136 26.9018 40.2025 27.0482 40.0482C27.3568 39.7475 27.8928 39.7475 28.2018 40.0482C28.3478 40.2025 28.4375 40.4136 28.4375 40.625C28.4375 40.8361 28.3478 41.0475 28.2018 41.2019C28.0475 41.3479 27.8361 41.4375 27.625 41.4375Z" fill="#153B69"/>
<path d="M8.125 41.4375H3.25C2.8013 41.4375 2.4375 41.0737 2.4375 40.625C2.4375 40.1763 2.8013 39.8125 3.25 39.8125H8.125C8.5737 39.8125 8.9375 40.1763 8.9375 40.625C8.9375 41.0737 8.5737 41.4375 8.125 41.4375Z" fill="#153B69"/>
<path d="M9.75 44.6875H7.3125C6.8638 44.6875 6.5 44.3237 6.5 43.875C6.5 43.4263 6.8638 43.0625 7.3125 43.0625H9.75C10.1987 43.0625 10.5625 43.4263 10.5625 43.875C10.5625 44.3237 10.1987 44.6875 9.75 44.6875Z" fill="#153B69"/>
<path d="M42.25 45.5H39C38.5513 45.5 38.1875 45.1362 38.1875 44.6875C38.1875 44.2388 38.5513 43.875 39 43.875H42.25C42.6987 43.875 43.0625 44.2388 43.0625 44.6875C43.0625 45.1362 42.6987 45.5 42.25 45.5Z" fill="#153B69"/>
<path d="M44.6875 42.25H42.25C41.8013 42.25 41.4375 41.8862 41.4375 41.4375C41.4375 40.9888 41.8013 40.625 42.25 40.625H44.6875C45.1362 40.625 45.5 40.9888 45.5 41.4375C45.5 41.8862 45.1362 42.25 44.6875 42.25Z" fill="#153B69"/>
<path d="M49.6272 13.8125H2.37207C1.92337 13.8125 1.55957 13.4487 1.55957 13C1.55957 12.5513 1.92337 12.1875 2.37207 12.1875H49.6272C50.0759 12.1875 50.4397 12.5513 50.4397 13C50.4397 13.4487 50.0759 13.8125 49.6272 13.8125Z" fill="#153B69"/>
</g>
<defs>
<clipPath id="clip0_418_1599">
<rect width="52" height="52" fill="white"/>
</clipPath>
</defs>
</svg>
