<svg width="62" height="62" viewBox="0 0 62 62" fill="none" xmlns="http://www.w3.org/2000/svg">
<path d="M44.2477 38.9486H35.6631V57.5486H44.2477V38.9486Z" fill="#FFB600"/>
<path d="M53.4684 22.6802C57.6535 22.6802 61.0462 19.2875 61.0462 15.1024C61.0462 10.9173 57.6535 7.52466 53.4684 7.52466C49.2833 7.52466 45.8906 10.9173 45.8906 15.1024C45.8906 19.2875 49.2833 22.6802 53.4684 22.6802Z" fill="#FFB600"/>
<path d="M49.3883 17.1164C49.2293 17.0634 49.1234 17.0104 49.0174 16.9574L48.8584 16.8514V16.6394L48.9644 15.6326L49.0174 15.2617L49.3353 15.4206C49.3883 15.4206 49.4413 15.4736 49.4943 15.4736C49.5473 15.4736 49.6003 15.5266 49.6533 15.5266C49.7593 15.5796 49.9182 15.6326 50.0242 15.6326C50.1302 15.6856 50.2892 15.6856 50.3952 15.7386C50.5011 15.7386 50.6071 15.7916 50.7131 15.7916C50.8191 15.7916 50.9251 15.7916 51.0311 15.8446C51.084 15.8446 51.19 15.8446 51.243 15.8446C51.296 15.8446 51.402 15.8446 51.455 15.8446C51.561 15.8446 51.6669 15.8446 51.7199 15.7916C51.8259 15.7916 51.8789 15.7386 51.9849 15.6856C52.0909 15.6326 52.1439 15.5796 52.1969 15.5266C52.2499 15.4736 52.3028 15.4206 52.3558 15.3147C52.4088 15.2617 52.4088 15.1557 52.4618 15.1027C52.4618 14.9967 52.4618 14.9437 52.4618 14.8377C52.4618 14.7318 52.4618 14.6788 52.4088 14.5728C52.3558 14.5198 52.3558 14.4138 52.3028 14.3608C52.2499 14.3078 52.1969 14.2548 52.1439 14.2018C52.0909 14.1488 52.0379 14.0959 51.9319 14.0429C51.8789 13.9899 51.7729 13.9369 51.7199 13.9369C51.6669 13.8839 51.561 13.8839 51.455 13.8309C51.296 13.7779 51.137 13.7249 50.9781 13.6189C50.8191 13.5659 50.6601 13.46 50.5011 13.407C50.3422 13.354 50.1832 13.248 50.0772 13.142C49.9712 13.036 49.8122 12.983 49.7063 12.8241C49.6003 12.7181 49.4943 12.6121 49.3883 12.5061C49.2823 12.4001 49.2293 12.2412 49.1234 12.1352C49.0704 11.9762 49.0174 11.8172 48.9644 11.6583C48.9114 11.4993 48.9114 11.3403 48.9114 11.1813C48.9114 10.9694 48.9114 10.8104 48.9644 10.5984C49.0174 10.4394 49.0704 10.2275 49.1234 10.0685C49.1763 9.90953 49.2823 9.75056 49.3883 9.59158C49.4943 9.43261 49.6003 9.32662 49.7593 9.16765C49.9182 9.06167 50.0242 8.95569 50.1832 8.8497C50.3422 8.74372 50.5011 8.69073 50.6601 8.63774H50.7131V7.73688V7.47192H50.9781H51.8259H52.0909V7.73688V8.58475H52.1969C52.3028 8.58475 52.3558 8.63774 52.4618 8.63774C52.5678 8.63774 52.6738 8.69073 52.7268 8.69073C52.7798 8.69073 52.8858 8.74372 52.9387 8.74372C52.9917 8.74372 53.0447 8.79671 53.1507 8.79671L53.3627 8.8497L53.3097 9.06167L53.2037 10.0155L53.1507 10.3335L52.8328 10.2275C52.7798 10.2275 52.7268 10.1745 52.6208 10.1745C52.5678 10.1745 52.5148 10.1215 52.4088 10.1215C52.3028 10.1215 52.1969 10.0685 52.0909 10.0685C51.9849 10.0685 51.8789 10.0155 51.7729 10.0155C51.7199 10.0155 51.614 10.0155 51.561 10.0155C51.508 10.0155 51.455 10.0155 51.349 10.0155C51.243 10.0155 51.137 10.0155 51.0311 10.0685C50.9251 10.1215 50.8721 10.1215 50.7661 10.1745C50.7131 10.2275 50.6071 10.2805 50.5541 10.3335C50.5011 10.3865 50.4481 10.4924 50.4481 10.5454C50.3952 10.5984 50.3952 10.7044 50.3952 10.8104C50.3952 10.9164 50.3952 10.9694 50.3952 11.0753C50.3952 11.1813 50.4481 11.2343 50.4481 11.3403C50.5011 11.3933 50.5011 11.4993 50.5541 11.5523C50.6071 11.6053 50.6601 11.6583 50.7131 11.7112C50.7661 11.7642 50.8721 11.8172 50.9251 11.8702C50.9781 11.9232 51.084 11.9232 51.137 11.9762C51.243 12.0292 51.296 12.0292 51.402 12.0822C51.561 12.1352 51.7199 12.1882 51.8789 12.2941C52.0379 12.3471 52.1969 12.4531 52.3558 12.5061C52.5148 12.5591 52.6208 12.6651 52.7798 12.7711C52.9387 12.8771 53.0447 12.983 53.1507 13.089C53.2567 13.195 53.3627 13.301 53.4687 13.407C53.5746 13.513 53.6276 13.6719 53.6806 13.7779C53.7336 13.9369 53.7866 14.0959 53.8396 14.2018C53.8926 14.3608 53.8926 14.5198 53.8926 14.6788C53.8926 14.8907 53.8926 15.0497 53.8396 15.2617C53.7866 15.4736 53.7336 15.6326 53.6806 15.7916C53.6276 15.9506 53.5217 16.1095 53.4157 16.2685C53.3097 16.4275 53.2037 16.5335 53.0447 16.6394C52.8858 16.7454 52.7268 16.8514 52.5678 16.9574C52.4088 17.0634 52.1969 17.1164 52.0379 17.1694H51.9849V18.0702V18.3352H51.7199H50.8721H50.6071V18.0702V17.2224H50.5011C50.3422 17.2224 50.1832 17.1694 50.0242 17.1694C49.8652 17.1164 49.7063 17.1164 49.6003 17.0634C49.6533 17.1694 49.4943 17.1164 49.3883 17.1164Z" fill="#0A2E66"/>
<path d="M51.4545 21.5144C56.1707 21.5144 59.9861 17.699 59.9861 12.9828C59.9861 8.26656 56.1707 4.45117 51.4545 4.45117C46.7382 4.45117 42.9229 8.31955 42.9229 13.0358C42.9229 17.752 46.7382 21.5144 51.4545 21.5144ZM51.4545 6.41186C55.1109 6.41186 58.0784 9.37938 58.0784 13.0358C58.0784 16.6922 55.1109 19.6597 51.4545 19.6597C47.7981 19.6597 44.8305 16.6922 44.8305 13.0358C44.8305 9.37938 47.7981 6.41186 51.4545 6.41186Z" fill="#153B69"/>
<path d="M10.916 36.034C11.128 36.034 11.2869 35.981 11.4459 35.875L24.1109 26.8135L36.3519 31.9006C36.6699 32.0066 37.0408 32.0066 37.3057 31.7947L47.1622 24.0049C47.5861 23.687 47.6391 23.1041 47.3211 22.6801C47.0032 22.2562 46.4203 22.2032 45.9963 22.5212L36.5639 29.993L24.3758 24.9058C24.0579 24.7998 23.7399 24.7998 23.475 25.0118L10.3861 34.3383C9.96216 34.6562 9.85618 35.2391 10.1741 35.663C10.3331 35.928 10.6511 36.034 10.916 36.034Z" fill="#153B69"/>
<path d="M61.0462 54.6341H56.7009V27.6085C56.7009 27.0786 56.2769 26.6547 55.747 26.6547H47.1624C46.6325 26.6547 46.2085 27.0786 46.2085 27.6085V54.6341H43.0291V36.935C43.0291 36.4051 42.6051 35.9812 42.0752 35.9812H33.5436C33.0137 35.9812 32.5897 36.4051 32.5897 36.935V54.6341H29.4103V35.5572C29.4103 35.0273 28.9863 34.6034 28.4564 34.6034H19.8718C19.3419 34.6034 18.9179 35.0273 18.9179 35.5572V54.6341H15.7385V41.0153C15.7385 40.4854 15.3145 40.0615 14.7846 40.0615H6.25299C5.72308 40.0615 5.29915 40.4854 5.29915 41.0153V54.6341H0.953846C0.423932 54.6341 0 55.0581 0 55.588C0 56.1179 0.423932 56.5418 0.953846 56.5418H6.25299H14.8376H19.8718H28.4564H33.4906H42.1282H47.1624H55.747H61.0462C61.5761 56.5418 62 56.1179 62 55.588C62 55.0581 61.5231 54.6341 61.0462 54.6341ZM48.1162 28.5094H54.8462V54.6341H48.1162V28.5094ZM34.4444 37.8888H41.1744V54.6341H34.4444V37.8888ZM20.8256 36.4581H27.5556V54.5811H20.8256V36.4581ZM7.20684 41.9162H13.9368V54.5811H7.20684V41.9162Z" fill="#153B69"/>
</svg>
