<svg width="38" height="38" viewBox="0 0 38 38" fill="none" xmlns="http://www.w3.org/2000/svg">
<path d="M0 19C0 8.50659 8.50659 0 19 0V0C29.4934 0 38 8.50659 38 19V19C38 29.4934 29.4934 38 19 38V38C8.50659 38 0 29.4934 0 19V19Z" fill="#135CB6"/>
<path d="M21.4404 8.5C18.4839 8.5 16.75 10.0616 16.75 13.6196V16.75H13V20.5H16.75V29.5H20.5V20.5H23.5L24.25 16.75H20.5V14.2539C20.5 12.9137 20.9371 12.25 22.1948 12.25H24.25V8.65381C23.8945 8.60581 22.8587 8.5 21.4404 8.5Z" fill="white"/>
<path d="M19 37C9.05888 37 1 28.9411 1 19H-1C-1 30.0457 7.95431 39 19 39V37ZM37 19C37 28.9411 28.9411 37 19 37V39C30.0457 39 39 30.0457 39 19H37ZM19 1C28.9411 1 37 9.05888 37 19H39C39 7.95431 30.0457 -1 19 -1V1ZM19 -1C7.95431 -1 -1 7.95431 -1 19H1C1 9.05888 9.05888 1 19 1V-1Z" fill="#135CB6"/>
</svg>
