<svg width="32" height="28" viewBox="0 0 32 28" fill="none" xmlns="http://www.w3.org/2000/svg">
<path d="M3 0C2.40666 0 1.82664 0.189481 1.33329 0.544483C0.839943 0.899484 0.455426 1.40406 0.228363 1.99441C0.00129986 2.58475 -0.0581102 3.23435 0.0576455 3.86106C0.173401 4.48777 0.459123 5.06344 0.878681 5.51527C1.29824 5.9671 1.83279 6.2748 2.41473 6.39946C2.99667 6.52412 3.59987 6.46014 4.14805 6.21561C4.69623 5.97108 5.16477 5.55699 5.49441 5.02569C5.82405 4.49439 6 3.86975 6 3.23077C6 2.37392 5.68393 1.55216 5.12132 0.94627C4.55871 0.340384 3.79565 0 3 0ZM3 10.7692C2.40666 10.7692 1.82664 10.9587 1.33329 11.3137C0.839943 11.6687 0.455426 12.1733 0.228363 12.7636C0.00129986 13.354 -0.0581102 14.0036 0.0576455 14.6303C0.173401 15.257 0.459123 15.8327 0.878681 16.2845C1.29824 16.7363 1.83279 17.044 2.41473 17.1687C2.99667 17.2933 3.59987 17.2294 4.14805 16.9848C4.69623 16.7403 5.16477 16.3262 5.49441 15.7949C5.82405 15.2636 6 14.639 6 14C6 13.1431 5.68393 12.3214 5.12132 11.7155C4.55871 11.1096 3.79565 10.7692 3 10.7692ZM3 21.5385C2.40666 21.5385 1.82664 21.7279 1.33329 22.0829C0.839943 22.4379 0.455426 22.9425 0.228363 23.5329C0.00129986 24.1232 -0.0581102 24.7728 0.0576455 25.3995C0.173401 26.0262 0.459123 26.6019 0.878681 27.0537C1.29824 27.5056 1.83279 27.8133 2.41473 27.9379C2.99667 28.0626 3.59987 27.9986 4.14805 27.7541C4.69623 27.5095 5.16477 27.0954 5.49441 26.5641C5.82405 26.0329 6 25.4082 6 24.7692C6 23.9124 5.68393 23.0906 5.12132 22.4847C4.55871 21.8788 3.79565 21.5385 3 21.5385ZM31 22.6154H11C10.7348 22.6154 10.4804 22.7288 10.2929 22.9308C10.1054 23.1328 10 23.4067 10 23.6923V25.8462C10 26.1318 10.1054 26.4057 10.2929 26.6077C10.4804 26.8096 10.7348 26.9231 11 26.9231H31C31.2652 26.9231 31.5196 26.8096 31.7071 26.6077C31.8946 26.4057 32 26.1318 32 25.8462V23.6923C32 23.4067 31.8946 23.1328 31.7071 22.9308C31.5196 22.7288 31.2652 22.6154 31 22.6154ZM31 1.07692H11C10.7348 1.07692 10.4804 1.19038 10.2929 1.39235C10.1054 1.59431 10 1.86823 10 2.15385V4.30769C10 4.59331 10.1054 4.86723 10.2929 5.06919C10.4804 5.27115 10.7348 5.38461 11 5.38461H31C31.2652 5.38461 31.5196 5.27115 31.7071 5.06919C31.8946 4.86723 32 4.59331 32 4.30769V2.15385C32 1.86823 31.8946 1.59431 31.7071 1.39235C31.5196 1.19038 31.2652 1.07692 31 1.07692ZM31 11.8462H11C10.7348 11.8462 10.4804 11.9596 10.2929 12.1616C10.1054 12.3635 10 12.6375 10 12.9231V15.0769C10 15.3625 10.1054 15.6365 10.2929 15.8384C10.4804 16.0404 10.7348 16.1538 11 16.1538H31C31.2652 16.1538 31.5196 16.0404 31.7071 15.8384C31.8946 15.6365 32 15.3625 32 15.0769V12.9231C32 12.6375 31.8946 12.3635 31.7071 12.1616C31.5196 11.9596 31.2652 11.8462 31 11.8462Z" fill="#F5F5F4"/>
</svg>
