<svg width="24" height="23" viewBox="0 0 24 23" fill="none" xmlns="http://www.w3.org/2000/svg">
<path d="M14.625 0C9.80225 0 5.875 3.92725 5.875 8.75C5.875 10.8452 6.60986 12.7661 7.84375 14.2734L0.871094 21.2461L2.12891 22.5039L9.10156 15.5312C10.6089 16.7651 12.5298 17.5 14.625 17.5C19.4478 17.5 23.375 13.5728 23.375 8.75C23.375 3.92725 19.4478 0 14.625 0ZM14.625 1.75C18.501 1.75 21.625 4.87402 21.625 8.75C21.625 12.626 18.501 15.75 14.625 15.75C10.749 15.75 7.625 12.626 7.625 8.75C7.625 4.87402 10.749 1.75 14.625 1.75Z" fill="#153B69"/>
</svg>
