<svg width="41" height="33" viewBox="0 0 41 33" fill="none" xmlns="http://www.w3.org/2000/svg">
<path d="M27.6738 28.8756L24.6007 28.8789V26.8125H16.4007V28.8885L13.327 28.8918C12.762 28.8924 12.304 29.3532 12.3033 29.9224L12.3001 31.9675C12.2995 32.5379 12.7595 33.0006 13.3264 33L27.6738 32.9832C28.2388 32.9826 28.6968 32.5218 28.6975 31.9533L28.7 29.9082C28.7007 29.3378 28.2407 28.875 27.6738 28.8756ZM37.4893 1.72348C37.3215 0.728965 36.4509 0 35.4304 0H5.56913C4.54862 0 3.67802 0.728965 3.51017 1.72348C-0.212474 23.7935 0.00277501 22.4348 0.00213439 22.6875C0.000212532 23.8038 0.917582 24.75 2.09056 24.75H38.9096C40.0774 24.75 40.9923 23.8116 40.9974 22.701C40.9987 22.4381 41.212 23.7935 37.4893 1.72348ZM16.6455 4.125H24.3541L24.9799 10.3125H16.0196L16.6455 4.125ZM11.8299 20.625H4.55439L5.77221 13.4062H12.5609L11.8299 20.625ZM12.8735 10.3125H6.29367L7.33724 4.125H13.4994L12.8735 10.3125ZM14.976 20.625L15.7063 13.4062H25.2932L26.0235 20.625H14.976ZM27.5001 4.125H33.6623L34.7058 10.3125H28.126L27.5001 4.125ZM29.1696 20.625L28.4393 13.4062H35.228L36.4458 20.625H29.1696Z" fill="white"/>
</svg>
