<svg width="72" height="73" viewBox="0 0 72 73" fill="none" xmlns="http://www.w3.org/2000/svg">
<g clip-path="url(#clip0_341_3200)">
<path d="M61.1678 54.7097H1.02441V25.4399H61.1678V54.7097Z" fill="white"/>
<path d="M2.37012 25.4401L5.8452 9.58569L59.6037 21.8497L58.9686 25.4401" fill="white"/>
<path d="M39.526 49.8313H48.5872L53.9604 44.5176V44.4115V35.7379L49.0731 30.3181H39.526H20.2801H11.2189L5.8457 35.6318V35.7379V44.4115L10.733 49.8313H20.2801H39.526Z" fill="#A0D468"/>
<path d="M14.4844 11.559L18.4322 2.00122L57.5578 18.5289L56.6966 21.1888" fill="white"/>
<path d="M46.7471 62.0266V66.9049C46.7471 68.9257 52.1323 70.5636 58.7757 70.5636C65.4192 70.5636 70.8044 68.9257 70.8044 66.9049V62.0266" fill="#FFB600"/>
<path d="M29.8934 49.8313C35.208 49.8313 39.5164 45.4631 39.5164 40.0747C39.5164 34.6863 35.208 30.3181 29.8934 30.3181C24.5788 30.3181 20.2705 34.6863 20.2705 40.0747C20.2705 45.4631 24.5788 49.8313 29.8934 49.8313Z" fill="white"/>
<path d="M46.7471 57.1483V62.0266C46.7471 64.0474 52.1323 65.6853 58.7757 65.6853C65.4192 65.6853 70.8044 64.0474 70.8044 62.0266V57.1483" fill="#CDA349"/>
<path d="M46.7471 52.2701V57.1484C46.7471 59.1693 52.1323 60.8072 58.7757 60.8072C65.4192 60.8072 70.8044 59.1693 70.8044 57.1484V52.2701" fill="#FFB600"/>
<path d="M46.7471 47.392V52.2703C46.7471 54.2911 52.1323 55.929 58.7757 55.929C65.4192 55.929 70.8044 54.2911 70.8044 52.2703V47.392" fill="#CDA349"/>
<path d="M46.7471 42.5137V47.392C46.7471 49.4128 52.1323 51.0507 58.7757 51.0507C65.4192 51.0507 70.8044 49.4128 70.8044 47.392V42.5137" fill="#FFB600"/>
<path d="M46.7471 37.6355V42.5138C46.7471 44.5346 52.1323 46.1725 58.7757 46.1725C65.4192 46.1725 70.8044 44.5346 70.8044 42.5138V37.6355" fill="#CDA349"/>
<path d="M58.7757 41.2942C65.419 41.2942 70.8044 39.6562 70.8044 37.6355C70.8044 35.6149 65.419 33.9768 58.7757 33.9768C52.1325 33.9768 46.7471 35.6149 46.7471 37.6355C46.7471 39.6562 52.1325 41.2942 58.7757 41.2942Z" fill="#FFB600"/>
<path d="M61.1742 30.1426C61.7429 30.1432 62.2045 29.6764 62.2051 29.0999C62.2051 29.0991 62.2051 29.0982 62.2051 29.0975V25.4387C62.2057 24.8622 61.7453 24.3942 61.1766 24.3936C61.1759 24.3936 61.175 24.3936 61.1742 24.3936H1.03086C0.462202 24.3929 0.000602022 24.8597 5.88585e-07 25.4363C5.88585e-07 25.4371 5.88585e-07 25.438 5.88585e-07 25.4387V54.7085C-0.000600845 55.285 0.459796 55.7531 1.02845 55.7537C1.0292 55.7537 1.03011 55.7537 1.03086 55.7537H41.9283C42.4976 55.7537 42.9592 55.2857 42.9592 54.7085C42.9592 54.1313 42.4976 53.6633 41.9283 53.6633H2.06171V26.4839H60.1433V29.0975C60.1427 29.674 60.6031 30.142 61.1718 30.1426C61.1725 30.1426 61.1734 30.1426 61.1742 30.1426Z" fill="#153B69"/>
<path d="M5.29536 8.70134C5.06426 8.85059 4.90082 9.08642 4.84068 9.35747L2.43495 20.3336C2.31135 20.8974 2.66199 21.4559 3.21801 21.5813C3.77404 21.7066 4.32495 21.3511 4.44854 20.7873L6.62934 10.8344L53.736 21.58C53.8106 21.5976 53.8868 21.6061 53.9634 21.6056C54.5326 21.6046 54.9933 21.1358 54.9924 20.5586C54.9915 20.0707 54.6579 19.6484 54.1883 19.5409L6.07362 8.56475C5.80658 8.50438 5.52676 8.55347 5.29536 8.70134Z" fill="#153B69"/>
<path d="M17.5841 7.61415L19.558 3.60907L47.5355 15.428C48.0623 15.6508 48.6677 15.3987 48.8875 14.8645C49.1073 14.3303 48.8586 13.7166 48.3317 13.4937L19.463 1.29798C18.9612 1.08593 18.3831 1.30377 18.1398 1.79679L15.7341 6.67508C15.4624 7.18456 15.6494 7.82102 16.1521 8.09649C16.6547 8.37196 17.2823 8.18232 17.554 7.67269C17.5647 7.65272 17.5748 7.63229 17.5841 7.61156V7.61415Z" fill="#153B69"/>
<path d="M50.1001 30.3169C50.1001 29.7397 49.6385 29.2717 49.0692 29.2717H39.5221C38.9528 29.2717 38.4912 29.7397 38.4912 30.3169C38.4912 30.8941 38.9528 31.3621 39.5221 31.3621H49.0692C49.6385 31.3621 50.1001 30.8942 50.1001 30.3169Z" fill="#153B69"/>
<path d="M29.8919 50.8075C35.738 50.8075 40.4771 46.0025 40.4771 40.0753C40.4771 34.148 35.738 29.343 29.8919 29.343C24.0458 29.343 19.3066 34.148 19.3066 40.0753C19.3127 46.0001 24.0483 50.8016 29.8919 50.8075ZM29.8919 31.2943C34.6751 31.2943 38.5525 35.2256 38.5525 40.0753C38.5525 44.9249 34.6751 48.8562 29.8919 48.8562C25.1087 48.8562 21.2312 44.9249 21.2312 40.0753C21.2365 35.2279 25.1109 31.2998 29.8919 31.2943Z" fill="#153B69"/>
<path d="M58.7735 32.7573C52.3983 32.7573 45.542 34.2842 45.542 37.6356V66.9054C45.542 70.2568 52.3983 71.7837 58.7735 71.7837C65.1487 71.7837 72.0051 70.2568 72.0051 66.9054V37.6356C72.0051 34.2842 65.1487 32.7573 58.7735 32.7573ZM69.5993 62.0088C69.4177 62.6857 65.8103 64.4662 58.7735 64.4662C51.7368 64.4662 48.1294 62.6857 47.9477 62.0271V60.1099C50.5074 61.4173 54.7355 62.0271 58.7735 62.0271C62.8116 62.0271 67.0408 61.4112 69.5993 60.1087V62.0088ZM69.5993 57.1305C69.4177 57.8074 65.8103 59.5879 58.7735 59.5879C51.7368 59.5879 48.1294 57.8074 47.9477 57.1488V55.2316C50.5074 56.539 54.7355 57.1488 58.7735 57.1488C62.8116 57.1488 67.0408 56.5329 69.5993 55.2304V57.1305ZM69.5993 52.2522C69.4177 52.9291 65.8103 54.7096 58.7735 54.7096C51.7368 54.7096 48.1294 52.9291 47.9477 52.2705V50.3533C50.5074 51.6607 54.7355 52.2705 58.7735 52.2705C62.8116 52.2705 67.0408 51.6546 69.5993 50.3521V52.2522ZM69.5993 47.3739C69.4177 48.0508 65.8103 49.8313 58.7735 49.8313C51.7368 49.8313 48.1294 48.0508 47.9477 47.3922V45.475C50.5074 46.7763 54.7355 47.3922 58.7735 47.3922C62.8116 47.3922 67.0408 46.7763 69.5993 45.4738V47.3739ZM69.5993 42.4956C69.4177 43.1725 65.8103 44.9531 58.7735 44.9531C51.7368 44.9531 48.1294 43.1725 47.9477 42.5139V40.5967C50.5074 41.898 54.7355 42.5139 58.7735 42.5139C62.8116 42.5139 67.0408 41.898 69.5993 40.5955V42.4956ZM58.7735 35.1965C65.7502 35.1965 69.3588 36.9453 69.5993 37.6356C69.3588 38.3259 65.7502 40.0748 58.7735 40.0748C51.7476 40.0748 48.1414 38.2991 47.9477 37.6576V37.6503C48.1414 36.9709 51.7476 35.1965 58.7735 35.1965ZM58.7735 69.3445C51.7368 69.3445 48.1294 67.5639 47.9477 66.9054V64.9882C50.5074 66.2956 54.7355 66.9054 58.7735 66.9054C62.8116 66.9054 67.0408 66.2895 69.5993 64.987V66.8871C69.4177 67.5639 65.8103 69.3445 58.7735 69.3445Z" fill="#153B69"/>
<path d="M11.6256 31.3621H20.2682C20.8375 31.3621 21.2991 30.8941 21.2991 30.3169C21.2991 29.7397 20.8375 29.2717 20.2682 29.2717H11.207C10.9376 29.2711 10.6785 29.3775 10.4853 29.5681L5.1121 34.8818C4.91137 35.1196 4.80131 35.4225 4.80176 35.7355V44.4091C4.80176 44.6699 4.89784 44.9213 5.0712 45.114L9.95845 50.5338C10.1538 50.7506 10.4301 50.8742 10.7199 50.874H20.2682C20.8375 50.874 21.2991 50.406 21.2991 49.8289C21.2991 49.2517 20.8375 48.7837 20.2682 48.7837H11.1758L6.86468 44.003V36.0757L11.6256 31.3621Z" fill="#153B69"/>
<path d="M30.5069 41.9029H27.4997C26.8355 41.9029 26.2969 42.449 26.2969 43.1225C26.2969 43.796 26.8355 44.342 27.4997 44.342H28.7026C28.7026 45.0155 29.2412 45.5616 29.9055 45.5616C30.5698 45.5616 31.1083 45.0155 31.1083 44.342V44.2872C32.4425 44.0961 33.4532 42.9688 33.5141 41.6041C33.4279 40.0051 32.0846 38.7765 30.5069 38.854H29.304C28.93 38.854 28.7026 38.6418 28.7026 38.5491C28.7026 38.4564 28.93 38.2442 29.304 38.2442H32.3112C32.9755 38.2442 33.5141 37.6981 33.5141 37.0246C33.5141 36.3511 32.9755 35.805 32.3112 35.805H31.1083C31.1083 35.1315 30.5698 34.5854 29.9055 34.5854C29.2412 34.5854 28.7026 35.1315 28.7026 35.805V35.8599C27.3685 36.0509 26.3578 37.1783 26.2969 38.543C26.383 40.142 27.7263 41.3705 29.304 41.2931H30.5069C30.881 41.2931 31.1083 41.5053 31.1083 41.598C31.1083 41.6907 30.881 41.9029 30.5069 41.9029Z" fill="#153B69"/>
</g>
<defs>
<clipPath id="clip0_341_3200">
<rect width="72" height="73" fill="white"/>
</clipPath>
</defs>
</svg>
