<svg width="32" height="21" viewBox="0 0 32 21" fill="none" xmlns="http://www.w3.org/2000/svg">
<path d="M30.6667 0H4.88889C4.1525 0 3.55556 0.587617 3.55556 1.3125V1.75H1.33333C0.596944 1.75 0 2.33762 0 3.0625V17.9375C0 19.6289 1.39289 21 3.11111 21H29.3333C30.8061 21 32 19.8248 32 18.375V1.3125C32 0.587617 31.4031 0 30.6667 0ZM3.11111 18.375C2.99324 18.375 2.88019 18.3289 2.79684 18.2469C2.71349 18.1648 2.66667 18.0535 2.66667 17.9375V4.375H3.55556V17.9375C3.55556 18.0535 3.50873 18.1648 3.42538 18.2469C3.34203 18.3289 3.22898 18.375 3.11111 18.375ZM16.2222 17.5H7.77778C7.40961 17.5 7.11111 17.2062 7.11111 16.8438V16.4062C7.11111 16.0438 7.40961 15.75 7.77778 15.75H16.2222C16.5904 15.75 16.8889 16.0438 16.8889 16.4062V16.8438C16.8889 17.2062 16.5904 17.5 16.2222 17.5ZM27.7778 17.5H19.3333C18.9652 17.5 18.6667 17.2062 18.6667 16.8438V16.4062C18.6667 16.0438 18.9652 15.75 19.3333 15.75H27.7778C28.1459 15.75 28.4444 16.0438 28.4444 16.4062V16.8438C28.4444 17.2062 28.1459 17.5 27.7778 17.5ZM16.2222 12.25H7.77778C7.40961 12.25 7.11111 11.9562 7.11111 11.5937V11.1562C7.11111 10.7938 7.40961 10.5 7.77778 10.5H16.2222C16.5904 10.5 16.8889 10.7938 16.8889 11.1562V11.5937C16.8889 11.9562 16.5904 12.25 16.2222 12.25ZM27.7778 12.25H19.3333C18.9652 12.25 18.6667 11.9562 18.6667 11.5937V11.1562C18.6667 10.7938 18.9652 10.5 19.3333 10.5H27.7778C28.1459 10.5 28.4444 10.7938 28.4444 11.1562V11.5937C28.4444 11.9562 28.1459 12.25 27.7778 12.25ZM27.7778 7H7.77778C7.40961 7 7.11111 6.70616 7.11111 6.34375V4.15625C7.11111 3.79384 7.40961 3.5 7.77778 3.5H27.7778C28.1459 3.5 28.4444 3.79384 28.4444 4.15625V6.34375C28.4444 6.70616 28.1459 7 27.7778 7Z" fill="#F5F5F4"/>
</svg>
