     <svg width="51" height="62" viewBox="0 0 51 62" fill="none" xmlns="http://www.w3.org/2000/svg">
                        <path d="M27.158 49.2488H23.4951V58.645H27.158V49.2488Z" fill="#84B0B5"/>
                        <path d="M35.0905 57.425H15.5605V61.0879H35.0905V57.425Z" fill="#DCF3F4"/>
                        <path d="M0.913086 46.8076H49.7385L44.856 23.6157H5.79522L0.913086 46.8076Z" fill="#DCF3F4"/>
                        <path d="M46.0759 46.8064L41.1934 23.6157H44.8552L49.7377 46.8064H46.0759Z" fill="#B0CDCF"/>
                        <path d="M35.0903 57.425H31.4287V61.0879H35.0903V57.425Z" fill="#B0CDCF"/>
                        <path d="M49.7383 46.8076H0.912109V50.4705H49.7383V46.8076Z" fill="#25739E"/>
                        <path d="M49.7378 46.8064H46.0762V50.468H49.7378V46.8064Z" fill="#216486"/>
                        <path d="M2.54004 39.0768H17.7305L18.273 31.3462H4.16742L2.54004 39.0768Z" fill="#A8D2D7"/>
                        <path d="M48.1104 39.0768H32.9204L32.3779 31.3462H46.4829L48.1104 39.0768Z" fill="#A8D2D7"/>
                        <path d="M33.4635 46.8075H17.1885L17.731 39.0769H32.921L33.4635 46.8075Z" fill="#A8D2D7"/>
                        <path d="M31.8359 23.6157L32.3784 31.3463H18.2734L18.8159 23.6157H31.8359Z" fill="#A8D2D7"/>
                        <path d="M48.1111 39.0771L46.5163 31.5002L46.4836 31.3464H44.4492L45.263 39.0771H48.1111Z" fill="#84B0B5"/>
                        <path d="M25.3257 13.1187C27.348 13.1187 28.9873 11.4793 28.9873 9.45704C28.9873 7.43478 27.348 5.79541 25.3257 5.79541C23.3034 5.79541 21.6641 7.43478 21.6641 9.45704C21.6641 11.4793 23.3034 13.1187 25.3257 13.1187Z" fill="#FFD347"/>
                        <path d="M25.3252 5.79541C24.8972 5.79541 24.4864 5.86952 24.1045 6.00466C25.5266 6.50756 26.5459 7.86321 26.5459 9.45753C26.5459 11.052 25.5266 12.4076 24.1045 12.9104C24.4863 13.0454 24.897 13.1196 25.3252 13.1196C27.3477 13.1196 28.9874 11.48 28.9874 9.45753C28.9874 7.43502 27.3479 5.79541 25.3252 5.79541V5.79541Z" fill="#FFBE31"/>
                        <path d="M25.326 3.04648C24.8217 3.04648 24.4131 2.63766 24.4131 2.13355V0.912926C24.4131 0.408691 24.8218 0 25.326 0C25.8302 0 26.2389 0.408812 26.2389 0.912926V2.13355C26.2391 2.63779 25.8304 3.04648 25.326 3.04648Z" fill="#FFD347"/>
                        <path d="M20.1463 5.19169C19.9127 5.19169 19.679 5.10257 19.5008 4.92432L18.6376 4.06128C18.281 3.70478 18.281 3.12668 18.6375 2.77006C18.9941 2.41356 19.5722 2.41356 19.9287 2.77006L20.7919 3.6331C21.1485 3.9896 21.1485 4.5677 20.792 4.92432C20.6136 5.10257 20.3799 5.19169 20.1463 5.19169V5.19169Z" fill="#FFD347"/>
                        <path d="M18.0017 10.3703H16.7811C16.2767 10.3703 15.8682 9.96147 15.8682 9.45736C15.8682 8.95325 16.2769 8.54443 16.7811 8.54443H18.0017C18.5061 8.54443 18.9146 8.95325 18.9146 9.45736C18.9146 9.96172 18.5059 10.3703 18.0017 10.3703Z" fill="#FFD347"/>
                        <path d="M19.2831 16.4131C19.0496 16.4131 18.8158 16.324 18.6376 16.1458C18.281 15.7893 18.281 15.2112 18.6375 14.8545L19.5005 13.9915C19.8571 13.635 20.4352 13.635 20.7916 13.9915C21.1482 14.348 21.1482 14.9261 20.7917 15.2827L19.9287 16.1458C19.7504 16.3239 19.5167 16.4131 19.2831 16.4131V16.4131Z" fill="#FFD347"/>
                        <path d="M25.326 18.9149C24.8217 18.9149 24.4131 18.5061 24.4131 18.002V16.7813C24.4131 16.2771 24.8218 15.8684 25.326 15.8684C25.8302 15.8684 26.2389 16.2772 26.2389 16.7813V18.002C26.2391 18.5061 25.8304 18.9149 25.326 18.9149Z" fill="#FFD347"/>
                        <path d="M31.3669 16.4132C31.1332 16.4132 30.8996 16.324 30.7212 16.1457L29.8582 15.2826C29.5017 14.9261 29.5017 14.348 29.8583 13.9914C30.2148 13.6349 30.7929 13.6351 31.1495 13.9914L32.0125 14.8544C32.369 15.2109 32.3691 15.789 32.0124 16.1457C31.8342 16.3239 31.6005 16.4132 31.3669 16.4132Z" fill="#FFD347"/>
                        <path d="M33.8699 10.3705H32.6493C32.145 10.3705 31.7363 9.96172 31.7363 9.4576C31.7363 8.95337 32.1451 8.54468 32.6493 8.54468H33.8699C34.3742 8.54468 34.7828 8.95349 34.7828 9.4576C34.7828 9.96184 34.3742 10.3705 33.8699 10.3705Z" fill="#FFD347"/>
                        <path d="M30.5048 5.19169C30.2712 5.19169 30.0375 5.10257 29.8593 4.92432C29.5027 4.56782 29.5027 3.98972 29.8592 3.6331L30.7222 2.77006C31.0788 2.41356 31.6569 2.41356 32.0133 2.77006C32.3699 3.12656 32.3699 3.70466 32.0134 4.06128L31.1504 4.92432C30.9721 5.10257 30.7384 5.19169 30.5048 5.19169V5.19169Z" fill="#FFD347"/>
                        <path d="M46.4839 31.3464H42.8232L44.4507 39.0771H48.1114L46.4839 31.3464Z" fill="#84B0B5"/>
                        <path d="M25.325 14.0323C27.8478 14.0323 29.9001 11.9799 29.9001 9.45737C29.9001 6.93462 27.8477 4.88232 25.325 4.88232C22.8024 4.88232 20.75 6.93474 20.75 9.45737C20.75 11.98 22.8024 14.0323 25.325 14.0323ZM25.325 6.70818C26.8409 6.70818 28.0742 7.94139 28.0742 9.45737C28.0742 10.9733 26.841 12.2064 25.325 12.2064C23.8092 12.2064 22.5759 10.9732 22.5759 9.45737C22.576 7.94152 23.8092 6.70818 25.325 6.70818V6.70818Z" fill="black"/>
                        <path d="M25.326 3.04648C25.8304 3.04648 26.2389 2.63766 26.2389 2.13355V0.912926C26.2389 0.408691 25.8302 0 25.326 0C24.8218 0 24.4131 0.408812 24.4131 0.912926V2.13355C24.4131 2.63779 24.8218 3.04648 25.326 3.04648Z" fill="black"/>
                        <path d="M19.5008 4.92439C19.679 5.10264 19.9127 5.19177 20.1463 5.19177C20.3799 5.19177 20.6136 5.10264 20.792 4.92427C21.1485 4.56777 21.1485 3.98967 20.7919 3.63305L19.9287 2.77002C19.5723 2.41352 18.9942 2.41364 18.6375 2.77002C18.281 3.12652 18.281 3.70462 18.6376 4.06124L19.5008 4.92439Z" fill="black"/>
                        <path d="M16.7811 10.3703H18.0017C18.5061 10.3703 18.9146 9.96147 18.9146 9.45736C18.9146 8.95325 18.5059 8.54443 18.0017 8.54443H16.7811C16.2767 8.54443 15.8682 8.95325 15.8682 9.45736C15.8682 9.96172 16.2767 10.3703 16.7811 10.3703Z" fill="black"/>
                        <path d="M19.5005 13.9913L18.6375 14.8543C18.281 15.2108 18.281 15.7889 18.6375 16.1454C18.8159 16.3236 19.0496 16.4129 19.2832 16.4129C19.5168 16.4129 19.7505 16.3238 19.9288 16.1454L20.7919 15.2824C21.1484 14.9259 21.1484 14.3478 20.7919 13.9913C20.4352 13.6348 19.8573 13.6348 19.5005 13.9913Z" fill="black"/>
                        <path d="M24.4121 16.7811V18.0017C24.4121 18.5059 24.8208 18.9146 25.325 18.9146C25.8293 18.9146 26.238 18.5058 26.238 18.0017V16.7811C26.238 16.2769 25.8293 15.8682 25.325 15.8682C24.8208 15.8682 24.4121 16.2769 24.4121 16.7811Z" fill="black"/>
                        <path d="M29.8593 13.9912C29.5027 14.3477 29.5027 14.9258 29.8592 15.2824L30.7222 16.1454C30.9006 16.3237 31.1341 16.4129 31.3679 16.4129C31.6014 16.4129 31.8352 16.3238 32.0134 16.1456C32.37 15.7891 32.37 15.211 32.0135 14.8543L31.1505 13.9913C30.7939 13.6348 30.2158 13.6347 29.8593 13.9912V13.9912Z" fill="black"/>
                        <path d="M31.7363 9.4576C31.7363 9.96184 32.1451 10.3705 32.6493 10.3705H33.8699C34.3742 10.3705 34.7828 9.96172 34.7828 9.4576C34.7828 8.95337 34.3741 8.54468 33.8699 8.54468H32.6493C32.1451 8.54468 31.7363 8.95337 31.7363 9.4576Z" fill="black"/>
                        <path d="M30.5047 5.19177C30.7383 5.19177 30.972 5.10264 31.1504 4.92427L32.0134 4.06124C32.3699 3.70474 32.3699 3.12664 32.0133 2.77002C31.6569 2.41352 31.0788 2.41364 30.7222 2.77002L29.8592 3.63305C29.5027 3.98955 29.5027 4.56765 29.8593 4.92427C30.0374 5.10264 30.2711 5.19177 30.5047 5.19177V5.19177Z" fill="black"/>
                        <path d="M50.6507 46.8197V46.8077C50.6507 46.7928 50.6493 46.7785 50.6485 46.7637C50.6478 46.7479 50.6477 46.7322 50.6461 46.7164C50.643 46.6843 50.6381 46.6526 50.6316 46.6216C50.6315 46.621 50.6315 46.6202 50.6312 46.6196L49.0054 38.8968L49.0036 38.888L47.3778 31.1656C47.3773 31.163 47.3767 31.1603 47.3761 31.1576L45.7487 23.4273C45.6598 23.0048 45.2871 22.7024 44.8553 22.7024H5.79409C5.36227 22.7024 4.98966 23.0048 4.90066 23.4273L3.27352 31.1567C3.27279 31.1599 3.27219 31.1632 3.27146 31.1665L1.64578 38.8892L1.64432 38.8958L0.0186406 46.619C0.0118594 46.6516 0.00653125 46.685 0.00338281 46.7188C0.00265625 46.7264 0.00277734 46.7341 0.00229297 46.7417C0.00071875 46.7636 -0.000976562 46.7854 -0.000976562 46.8078V50.47C-0.000976562 50.9743 0.407715 51.383 0.911949 51.383H22.5805V56.512H15.5592C15.0549 56.512 14.6463 56.9208 14.6463 57.425V60.1743H5.79409C5.28973 60.1743 4.88116 60.5831 4.88116 61.0872C4.88116 61.5914 5.28985 62.0001 5.79409 62.0001H44.8541C45.3584 62.0001 45.767 61.5913 45.767 61.0872C45.767 60.583 45.3583 60.1743 44.8541 60.1743H36.0032V57.425C36.0032 56.9207 35.5945 56.512 35.0903 56.512H28.0692V51.383H49.7377C50.242 51.383 50.6506 50.9742 50.6506 50.47V46.8242C50.6507 46.8226 50.6507 46.8211 50.6507 46.8197V46.8197ZM4.90756 32.2594H17.293L16.8786 38.1643H3.66489L4.90756 32.2594ZM19.1228 32.2594H31.5252L31.9397 38.1643H18.7078L19.1228 32.2594ZM30.9833 24.5286L31.3978 30.4335H19.2509L19.6653 24.5286H30.9833ZM46.9846 38.1638H33.7709L33.3565 32.2589H45.742L46.9846 38.1638ZM32.0683 39.9897L32.4828 45.8945H18.1659L18.5801 39.9896H32.0676L32.0683 39.9897ZM34.3131 45.8946L33.8986 39.9897H47.3691L48.6122 45.8946H34.3131ZM45.3571 30.4334H33.2284L32.814 24.5285H44.1143L45.3571 30.4334ZM6.53445 24.5285H17.8347L17.4203 30.4334H5.29155L6.53445 24.5285ZM34.1765 60.1749H16.4714V58.3386H34.1765V60.1749ZM26.2423 56.5126H24.406V51.3836H26.2423V56.5126ZM48.8239 49.5577H27.1663C27.1628 49.5577 27.1593 49.5572 27.1558 49.5572H23.4934C23.4899 49.5572 23.4864 49.5577 23.4829 49.5577H1.82403V47.7215H6.17311C6.67747 47.7215 7.08604 47.3127 7.08604 46.8085C7.08604 46.3043 6.67734 45.8956 6.17311 45.8956H2.03618L3.27921 39.9907H16.7497L16.3354 45.8956H10.1215C9.61714 45.8956 9.20857 46.3044 9.20857 46.8085C9.20857 47.3128 9.61726 47.7215 10.1215 47.7215H17.1859H17.1876H17.1888H33.4601H33.4613H33.463H48.8238V49.5577H48.8239Z" fill="#153B69"/>
                        </svg>