<svg width="50" height="50" viewBox="0 0 50 50" fill="none" xmlns="http://www.w3.org/2000/svg">
<g clip-path="url(#clip0_341_3239)">
<path d="M22.5005 27.4999L15.4671 47.9749C4.92796 44.3608 -1.15204 33.3432 1.4088 22.4999L22.5005 27.4999Z" fill="white"/>
<path d="M22.5008 5.8333V27.5C19.0342 26.6666 22.3258 27.45 1.40918 22.5416C3.4631 13.7675 10.7333 7.17996 19.6675 5.99996C20.6064 5.87366 21.5536 5.81795 22.5008 5.8333Z" fill="#CCDDFC"/>
<path d="M20.0008 6.66667V26.8917L1.40918 22.5C3.4781 13.7417 10.745 7.17417 19.6675 6C19.8774 6.15737 20.0008 6.40437 20.0008 6.66667Z" fill="white"/>
<path d="M49.1671 37.4999C49.1578 43.7786 44.1812 48.9241 37.9062 49.1424C31.6314 49.3609 26.3087 44.5742 25.8629 38.3116C25.417 32.0488 30.0076 26.5566 36.2504 25.8833C39.5461 25.5281 42.8372 26.5916 45.3021 28.8083C47.7667 31.0248 49.1721 34.1852 49.1672 37.4999H49.1671Z" fill="#C78E00"/>
<path d="M36.2507 49.0833C42.0036 49.0833 46.6673 43.8898 46.6673 37.4833C46.6673 31.0768 42.0036 25.8833 36.2507 25.8833C30.4977 25.8833 25.834 31.0768 25.834 37.4833C25.834 43.8898 30.4977 49.0833 36.2507 49.0833Z" fill="#FFB600"/>
<path d="M44.1675 27.9249C40.7013 25.4995 36.1937 25.1405 32.3875 26.9867C28.5811 28.833 26.0724 32.5952 25.8314 36.8192C25.5903 41.0429 27.6545 45.0662 31.2261 47.3334C26.2426 49.5248 20.6169 49.7598 15.4678 47.9917L22.5011 27.5001L42.8178 19.9501C43.7679 22.4992 44.2259 25.2053 44.1678 27.9251L44.1675 27.9249Z" fill="white"/>
<path d="M46.1423 14.9499L25.834 22.4999V0.833252C34.8882 0.833391 42.9873 6.46334 46.1423 14.9499Z" fill="white"/>
<path d="M25.834 0.833252V0.991585C33.9211 1.92909 40.7998 7.32092 43.6423 14.9499L25.834 21.5666V22.4999L46.1423 14.9499C42.9873 6.46325 34.8882 0.833252 25.834 0.833252V0.833252Z" fill="#CCDDFC"/>
<path d="M25.8333 23.3333C26.0667 23.3333 24.7333 23.8 46.4333 15.7333C46.6415 15.6565 46.8105 15.4999 46.9028 15.2981C46.9951 15.0963 47.0031 14.866 46.925 14.6583C43.6261 5.8625 35.2275 0.0258333 25.8333 0C25.3731 0 25 0.3731 25 0.833333V22.5C25 22.9602 25.3731 23.3333 25.8333 23.3333H25.8333ZM26.6667 1.66667C34.757 2.01686 41.92 7.00183 45.0583 14.4667L26.6667 21.3V1.66667Z" fill="#153B69"/>
<path d="M45.0002 27.5C45.0066 24.8153 44.5324 22.151 43.6002 19.6333C43.5187 19.4235 43.3559 19.2556 43.1487 19.1677C42.9415 19.0798 42.7076 19.0794 42.5002 19.1667L23.3335 26.3V5.83334C23.3335 5.3731 22.9604 5 22.5002 5C13.3893 4.99463 5.17432 10.4845 1.69349 18.905C-1.7871 27.325 0.153821 37.0133 6.60949 43.4425C13.0652 49.8719 22.7612 51.7734 31.167 48.2586C36.8742 51.539 44.1478 49.831 47.7978 44.3531C51.4478 38.8752 50.2247 31.5048 45.0001 27.5006L45.0002 27.5ZM21.6668 6.66667V26.45L2.44182 21.925C4.83032 13.1858 12.6143 7.00834 21.6668 6.66667ZM2.05015 23.55L21.4168 28.1L15.0002 46.9C5.60765 43.2693 0.155988 33.44 2.05015 23.55ZM16.5335 47.4417L23.2002 28.1417L42.3668 21.025C42.9309 22.7761 43.2561 24.5953 43.3335 26.4333C37.6675 23.4383 30.6543 25.2137 27.096 30.5439C23.5375 35.8741 24.5867 43.0323 29.5253 47.1164C25.3421 48.6172 20.787 48.7311 16.5337 47.4414L16.5335 47.4417ZM37.5002 48.3333C31.5171 48.3333 26.6668 43.4831 26.6668 37.5C26.6668 31.5169 31.5171 26.6667 37.5002 26.6667C43.4832 26.6667 48.3335 31.5169 48.3335 37.5C48.3335 40.3732 47.1922 43.1287 45.1605 45.1603C43.1288 47.192 40.3733 48.3333 37.5002 48.3333Z" fill="#153B69"/>
<path d="M37.5003 33.3333C38.4208 33.3333 39.167 34.0795 39.167 35C39.167 35.4602 39.5401 35.8333 40.0003 35.8333C40.4606 35.8333 40.8337 35.4602 40.8337 35C40.8287 33.484 39.8015 32.1623 38.3337 31.7833V30.8333C38.3337 30.3731 37.9606 30 37.5003 30C37.0401 30 36.667 30.3731 36.667 30.8333V31.7833C35.062 32.219 34.0237 33.7712 34.2336 35.4209C34.4435 37.0708 35.8373 38.3134 37.5003 38.3333C38.4208 38.3333 39.167 39.0795 39.167 40C39.167 40.9205 38.4208 41.6667 37.5003 41.6667C36.5799 41.6667 35.8337 40.9205 35.8337 40C35.8337 39.5398 35.4606 39.1667 35.0003 39.1667C34.5401 39.1667 34.167 39.5398 34.167 40C34.1719 41.516 35.1992 42.8377 36.667 43.2167V44.1667C36.667 44.6269 37.0401 45 37.5003 45C37.9606 45 38.3337 44.6269 38.3337 44.1667V43.2167C39.9387 42.781 40.977 41.2288 40.7671 39.5791C40.5572 37.9292 39.1633 36.6866 37.5003 36.6667C36.5798 36.6667 35.8337 35.9205 35.8337 35C35.8337 34.0795 36.5799 33.3333 37.5003 33.3333Z" fill="#153B69"/>
</g>
<defs>
<clipPath id="clip0_341_3239">
<rect width="50" height="50" fill="white"/>
</clipPath>
</defs>
</svg>
