 <svg width="35" height="62" viewBox="0 0 35 62" fill="none" xmlns="http://www.w3.org/2000/svg">
                        <path d="M25.1204 32.6003H18.8204L23.0203 16.8503L8.32031 34.7003H14.6203L10.4204 50.4503L25.1204 32.6003Z" fill="#FFB600"/>
                        <path d="M10.0003 52.6075C9.83755 52.6075 9.67279 52.5697 9.52046 52.4909C9.08155 52.2652 8.85896 51.7644 8.98607 51.2866L12.8333 36.8575H7.9003C7.494 36.8575 7.12437 36.6233 6.95112 36.2558C6.77787 35.8882 6.83139 35.4536 7.08967 35.1407L21.7897 17.2907C22.1036 16.9095 22.6413 16.7982 23.0801 17.025C23.519 17.2508 23.7416 17.7516 23.6145 18.2294L19.7673 32.6575H24.7003C25.1066 32.6575 25.4762 32.8917 25.6495 33.2592C25.8227 33.6268 25.7692 34.0615 25.5109 34.3743L10.811 52.2242C10.6062 52.4741 10.3059 52.6075 10.0003 52.6075ZM10.1252 34.7574H14.2003C14.5269 34.7574 14.8345 34.9096 15.033 35.168C15.2314 35.4274 15.2986 35.7633 15.2146 36.0783L12.2589 47.1631L22.4755 34.7574H18.4004C18.0738 34.7574 17.7662 34.6052 17.5677 34.3468C17.3693 34.0874 17.3021 33.7515 17.3861 33.4365L20.3418 22.3517L10.1252 34.7574Z" fill="#153B69"/>
                        <path d="M22.6011 6.40742H10.0011C9.42158 6.40742 8.95117 5.93701 8.95117 5.35746V1.15738C8.95117 0.57783 9.42158 0.107422 10.0011 0.107422H22.6011C23.1807 0.107422 23.6511 0.57783 23.6511 1.15738V5.35734C23.6511 5.93701 23.1807 6.40742 22.6011 6.40742ZM11.0511 4.30738H21.551V2.20746H11.0511V4.30738Z" fill="#153B69"/>
                        <path d="M28.4482 62H4.99323C2.77457 62 0.970703 60.2367 0.970703 58.0704V8.48841C0.970703 6.3221 2.77457 4.55884 4.99323 4.55884H28.4482C30.6657 4.55884 32.4707 6.3221 32.4707 8.48841V58.0704C32.4707 60.2367 30.6657 62 28.4482 62ZM4.99323 6.61023C3.93269 6.61023 3.07062 7.45238 3.07062 8.48841V58.0704C3.07062 59.1065 3.93269 59.9486 4.99323 59.9486H28.4482C29.5087 59.9486 30.3708 59.1065 30.3708 58.0704V8.48841C30.3708 7.45238 29.5087 6.61023 28.4482 6.61023H4.99323Z" fill="#153B69"/>
                    </svg>