<svg width="57" height="57" viewBox="0 0 57 57" fill="none" xmlns="http://www.w3.org/2000/svg">
<g clip-path="url(#clip0_341_3082)">
<path d="M36.0975 27.5487H30.3975L33.2475 15.1987L20.8975 29.4487H26.5975L23.7475 41.7987L36.0975 27.5487Z" fill="#FFB600"/>
<path d="M28.4941 47.5005C18.0175 47.5005 9.49414 38.9771 9.49414 28.5005C9.49414 18.0239 18.0175 9.50049 28.4941 9.50049C38.9707 9.50049 47.4941 18.0239 47.4941 28.5005C47.4941 38.9771 38.9707 47.5005 28.4941 47.5005ZM28.4941 11.4005C19.0654 11.4005 11.3941 19.0717 11.3941 28.5005C11.3941 37.9292 19.0654 45.6005 28.4941 45.6005C37.9229 45.6005 45.5941 37.9292 45.5941 28.5005C45.5941 19.0717 37.9229 11.4005 28.4941 11.4005Z" fill="#153B69"/>
<path d="M28.4959 57.0019C27.9715 57.0019 27.5459 56.5763 27.5459 56.0519V50.3519C27.5459 49.8275 27.9715 49.4019 28.4959 49.4019C29.0203 49.4019 29.4459 49.8275 29.4459 50.3519V56.0519C29.4459 56.5763 29.0203 57.0019 28.4959 57.0019Z" fill="#153B69"/>
<path d="M28.4959 7.6C27.9715 7.6 27.5459 7.1744 27.5459 6.65V0.95C27.5459 0.4256 27.9715 0 28.4959 0C29.0203 0 29.4459 0.4256 29.4459 0.95V6.65C29.4459 7.1744 29.0203 7.6 28.4959 7.6Z" fill="#153B69"/>
<path d="M6.65 29.4498H0.95C0.4256 29.4498 0 29.0242 0 28.4998C0 27.9754 0.4256 27.5498 0.95 27.5498H6.65C7.1744 27.5498 7.6 27.9754 7.6 28.4998C7.6 29.0242 7.1744 29.4498 6.65 29.4498Z" fill="#153B69"/>
<path d="M56.0553 29.4498H50.3553C49.8309 29.4498 49.4053 29.0242 49.4053 28.4998C49.4053 27.9754 49.8309 27.5498 50.3553 27.5498H56.0553C56.5797 27.5498 57.0053 27.9754 57.0053 28.4998C57.0053 29.0242 56.5797 29.4498 56.0553 29.4498Z" fill="#153B69"/>
<path d="M23.7499 42.7504C23.6036 42.7504 23.4563 42.7171 23.3195 42.6478C22.931 42.4502 22.7267 42.0122 22.8246 41.5866L25.4057 30.4004H20.8999C20.5275 30.4004 20.1902 30.1828 20.0354 29.8456C19.8805 29.5074 19.9375 29.1103 20.1817 28.8291L32.5317 14.5791C32.8176 14.2485 33.2917 14.1563 33.6802 14.3539C34.0697 14.5515 34.274 14.9895 34.1752 15.4151L31.594 26.6004H36.0999C36.4723 26.6004 36.8095 26.8179 36.9644 27.1552C37.1192 27.4934 37.0622 27.8905 36.8181 28.1717L24.4681 42.4217C24.2828 42.6364 24.0187 42.7504 23.7499 42.7504ZM22.9804 28.5004H26.5999C26.8896 28.5004 27.1632 28.6324 27.3428 28.8585C27.5233 29.0846 27.5898 29.381 27.5252 29.6641L25.5349 38.2901L34.0194 28.5004H30.3999C30.1101 28.5004 29.8365 28.3683 29.656 28.1422C29.4765 27.9161 29.409 27.6197 29.4736 27.3366L31.4648 18.7106L22.9804 28.5004Z" fill="#153B69"/>
<path d="M47.9772 48.9306C47.734 48.9306 47.4908 48.8375 47.3056 48.6523L43.2757 44.6224C42.9042 44.2509 42.9042 43.6505 43.2757 43.2791C43.6471 42.9076 44.2475 42.9076 44.619 43.2791L48.6489 47.309C49.0203 47.6804 49.0203 48.2808 48.6489 48.6523C48.4636 48.8375 48.2204 48.9306 47.9772 48.9306Z" fill="#153B69"/>
<path d="M13.0455 13.9978C12.8023 13.9978 12.5591 13.9047 12.3739 13.7194L8.34304 9.68951C7.97159 9.31806 7.97159 8.71766 8.34304 8.34621C8.71354 7.97476 9.31489 7.97476 9.68634 8.34621L13.7172 12.3761C14.0886 12.7476 14.0886 13.348 13.7172 13.7194C13.5319 13.9056 13.2878 13.9978 13.0455 13.9978Z" fill="#153B69"/>
<path d="M9.01469 48.9306C8.77149 48.9306 8.52829 48.8375 8.34304 48.6523C7.97159 48.2808 7.97159 47.6804 8.34304 47.309L12.3739 43.2791C12.7453 42.9076 13.3467 42.9076 13.7172 43.2791C14.0886 43.6505 14.0886 44.2509 13.7172 44.6224L9.68634 48.6523C9.50109 48.8375 9.25789 48.9306 9.01469 48.9306Z" fill="#153B69"/>
<path d="M43.9473 13.9978C43.7041 13.9978 43.4609 13.9047 43.2757 13.7194C42.9042 13.348 42.9042 12.7476 43.2757 12.3761L47.3056 8.34621C47.677 7.97476 48.2774 7.97476 48.6489 8.34621C49.0203 8.71766 49.0203 9.31806 48.6489 9.68951L44.619 13.7194C44.4328 13.9056 44.1905 13.9978 43.9473 13.9978Z" fill="#153B69"/>
</g>
<defs>
<clipPath id="clip0_341_3082">
<rect width="57" height="57" fill="white"/>
</clipPath>
</defs>
</svg>
