<svg width="78" height="78" viewBox="0 0 78 78" fill="none" xmlns="http://www.w3.org/2000/svg">
<path d="M45.283 35.7717C43.3763 37.505 43.3763 40.495 45.283 42.2283L48.9447 45.5217C51.2413 47.58 52.5413 50.505 52.5413 53.5817V63.375H25.458V53.5817C25.458 50.505 26.758 47.58 29.0547 45.5217L32.7163 42.2283C34.623 40.495 34.623 37.505 32.7163 35.7717L29.0547 32.4783C26.758 30.42 25.458 27.495 25.458 24.4183V14.625H52.5413V24.4183C52.5413 27.495 51.2413 30.42 48.9447 32.4783L45.283 35.7717Z" fill="#F3F3F1"/>
<path d="M30.333 57.1458C30.333 53.3173 31.633 49.6773 33.9297 47.1163L37.5913 43.017C39.498 40.859 39.498 37.1388 37.5913 34.983L33.9297 30.8837C31.633 28.3227 30.333 24.6827 30.333 20.8542V14.625H25.458V24.4183C25.458 27.495 26.758 30.42 29.0547 32.4783L32.7163 35.7717C34.623 37.505 34.623 40.495 32.7163 42.2283L29.0547 45.5217C26.758 47.58 25.458 50.505 25.458 53.5817V63.375H30.333V57.1458Z" fill="#D5DBE1"/>
<path d="M44.7717 56.6886L38.9997 50.9166L33.2277 56.6886C32.4152 57.5011 31.958 58.604 31.958 59.7523V63.375H46.0413V59.7523C46.0413 58.604 45.5842 57.5011 44.7717 56.6886Z" fill="#2FDF84"/>
<path d="M31.958 23.2916C31.958 25.025 32.647 26.689 33.8733 27.9153L38.9997 33.0416L44.126 27.9153C45.3523 26.689 46.0413 25.025 46.0413 23.2916H31.958Z" fill="#A0E5A5"/>
<path d="M44.7717 56.6886L38.9997 50.9166L33.2277 56.6886C32.4152 57.5011 31.958 58.604 31.958 59.7523V63.375H46.0413V59.7523C46.0413 58.604 45.5842 57.5011 44.7717 56.6886Z" fill="#A0E5A5"/>
<path d="M38.1027 56.6886L41.4372 53.3541L38.9997 50.9166L33.2277 56.6886C32.4152 57.5011 31.958 58.604 31.958 59.7523V63.375H36.833V59.7523C36.833 58.604 37.2902 57.5011 38.1027 56.6886Z" fill="#00B871"/>
<path d="M38.7483 27.9153C37.522 26.689 36.833 25.025 36.833 23.2916H31.958C31.958 25.025 32.647 26.689 33.8733 27.9153L38.9997 33.0416L41.4372 30.6041L38.7483 27.9153Z" fill="#00B871"/>
<path d="M21.125 13H56.875V16.25H21.125V13Z" fill="#153B69"/>
<path d="M21.125 61.75H56.875V65H21.125V61.75Z" fill="#153B69"/>
<path d="M47.6663 63.3749H44.4163V59.7523C44.4163 59.0286 44.1347 58.3504 43.6255 57.8391L38.9997 53.2154L34.376 57.8391C33.8733 58.3418 33.583 59.0416 33.583 59.7544V63.3771H30.333V59.7544C30.333 58.1641 30.9527 56.6669 32.0793 55.5424L37.8513 49.7704C38.4862 49.1356 39.5153 49.1356 40.1502 49.7704L45.9222 55.5424C47.0467 56.6604 47.6663 58.1598 47.6663 59.7523V63.3749Z" fill="#153B69"/>
<path d="M38.9997 34.6666C38.5837 34.6666 38.1677 34.5085 37.8513 34.19L32.725 29.0636C31.1802 27.521 30.333 25.4735 30.333 23.2916C30.333 22.3946 31.061 21.6666 31.958 21.6666H46.0413C46.9383 21.6666 47.6663 22.3946 47.6663 23.2916C47.6663 25.4756 46.817 27.5253 45.2743 29.0658L40.148 34.19C39.8295 34.5085 39.4157 34.6666 38.9997 34.6666ZM33.8625 24.9166C34.1052 25.6056 34.4995 26.2426 35.0217 26.767L38.9997 30.7428L42.9777 26.7648C43.5085 26.234 43.9028 25.6035 44.1433 24.9145H33.8625V24.9166Z" fill="#153B69"/>
<path d="M27.083 63.375H23.833V53.5752C23.833 50.05 25.3345 46.6743 27.9562 44.317L31.6243 41.015C32.205 40.495 32.5213 39.7822 32.5213 39.0022C32.5213 38.2222 32.205 37.5115 31.6243 36.9893L27.9562 33.6873C25.3345 31.3257 23.833 27.95 23.833 24.4248V14.625H27.083V24.4248C27.083 27.0292 28.1945 29.5252 30.1315 31.2672L33.7997 34.5692C35.052 35.698 35.7713 37.3122 35.7713 38.9978C35.7713 40.6835 35.052 42.2977 33.7997 43.4265L30.1315 46.7285C28.1923 48.4727 27.083 50.9665 27.083 53.5708V63.375Z" fill="#153B69"/>
<path d="M54.1668 63.375H50.9168V53.5752C50.9168 50.9708 49.8053 48.4748 47.8683 46.7328L44.2002 43.4287C42.9478 42.2998 42.2285 40.6857 42.2285 39C42.2285 37.3143 42.9478 35.7002 44.2002 34.5713L47.8662 31.2693C49.8053 29.5252 50.9147 27.0313 50.9147 24.427V14.625H54.1668V24.4248C54.1668 27.95 52.6653 31.3257 50.0437 33.683L46.3777 36.985C45.797 37.505 45.4807 38.2178 45.4807 38.9978C45.4807 39.7778 45.797 40.4885 46.3777 41.0107L50.0437 44.3127C52.6632 46.6743 54.1668 50.05 54.1668 53.5752V63.375Z" fill="#153B69"/>
</svg>
