<svg width="38" height="38" viewBox="0 0 38 38" fill="none" xmlns="http://www.w3.org/2000/svg">
<path d="M0 19C0 8.50659 8.50659 0 19 0C29.4934 0 38 8.50659 38 19C38 29.4934 29.4934 38 19 38C8.50659 38 0 29.4934 0 19Z" fill="#00ACED"/>
<path d="M28 13.4189C27.3379 13.7119 26.626 13.9111 25.8789 13.999C26.6406 13.542 27.2266 12.8184 27.502 11.957C26.79 12.3789 25.999 12.6865 25.1582 12.8535C24.4844 12.1357 23.5234 11.6846 22.4629 11.6846C20.4238 11.6846 18.7686 13.3398 18.7686 15.3789C18.7686 15.6689 18.8008 15.9502 18.8652 16.2197C15.7949 16.0674 13.0732 14.5967 11.2539 12.3613C10.9346 12.9062 10.7529 13.542 10.7529 14.2187C10.7529 15.499 11.4033 16.6299 12.3965 17.292C11.79 17.2715 11.2217 17.1074 10.7236 16.8291C10.7236 16.8467 10.7236 16.8613 10.7236 16.876C10.7236 18.666 11.9951 20.1602 13.6855 20.4971C13.375 20.582 13.0498 20.6289 12.7129 20.6289C12.4756 20.6289 12.2412 20.6055 12.0186 20.5615C12.4873 22.0293 13.8525 23.0957 15.4668 23.1279C14.2041 24.1182 12.6104 24.707 10.8818 24.707C10.583 24.707 10.29 24.6895 10 24.6543C11.6348 25.7031 13.5742 26.3154 15.6602 26.3154C22.4541 26.3154 26.1689 20.6875 26.1689 15.8066C26.1689 15.6484 26.1631 15.4873 26.1572 15.3291C26.8779 14.8076 27.5049 14.1572 28 13.4189Z" fill="white"/>
<path d="M19 37C9.05888 37 1 28.9411 1 19H-1C-1 30.0457 7.95431 39 19 39V37ZM37 19C37 28.9411 28.9411 37 19 37V39C30.0457 39 39 30.0457 39 19H37ZM19 1C28.9411 1 37 9.05888 37 19H39C39 7.95431 30.0457 -1 19 -1V1ZM19 -1C7.95431 -1 -1 7.95431 -1 19H1C1 9.05888 9.05888 1 19 1V-1Z" fill="#00ACED"/>
</svg>
